# xmcd
#
# Track frame offsets:
# 150
# 17396
# 30200
# 42668
# 53266
# 64510
# 81644
# 107010
# 118524
# 144515
# 158801
# 169633
# 183643
# 201403
# 214986
# 229437
# 243057
# 257696
# 272933
# 290531
# 310092
# 325935
# 340747
#
# Disc length: 4761 seconds
#
#
# Revision: 0
# Processed by: cddbd v1.5.2PL0 Copyright (c) Steve Scherf et al.
# Submitted via: Nero 7, 11, 10, 0 
#
DISCID=48129717
DTITLE=The Juke Jumpers - Border Radio and The Joint's Jumpin'!
DYEAR=2003
DGENRE=Blues
TTITLE0=Cadillac Boogie
TTITLE1=My Little Jewel
TTITLE2=What Goes On Behind Your Back
TTITLE3=Wiggle Your Hips
TTITLE4=Cuttin' Cane
TTITLE5=Horn Street Bounce
TTITLE6=You're Humbuggin' Me - I'm A Little Mixed Up
TTITLE7=Sunglasses After Dark
TTITLE8=You Don't Love Me
TTITLE9=Me And The Devil
TTITLE10=The Jump
TTITLE11=C'mon Let's Boogie 
TTITLE12=Necks And Feet
TTITLE13=Tag Along
TTITLE14=What Kind Of Fool (Do You Think I Am?)
TTITLE15=I Tried
TTITLE16=Booger Red
TTITLE17=The Knockout
TTITLE18=You Did Me Wrong
TTITLE19=Let's Get Loose
TTITLE20=Mama Didn't Raise No Fool
TTITLE21=T-Bone Shuffle
TTITLE22=Bluebird Boogie
EXTD=
EXTT0=Cadillac Boogie
EXTT1=My Little Jewel
EXTT2=What Goes On Behind Your Back
EXTT3=Wiggle Your Hips
EXTT4=Cuttin' Cane
EXTT5=Horn Street Bounce
EXTT6=You're Humbuggin' Me - I'm A Little Mixed Up
EXTT7=Sunglasses After Dark
EXTT8=You Don't Love Me
EXTT9=Me And The Devil
EXTT10=The Jump
EXTT11=C'mon Let's Boogie 
EXTT12=Necks And Feet
EXTT13=Tag Along
EXTT14=What Kind Of Fool (Do You Think I Am?)
EXTT15=I Tried
EXTT16=Booger Red
EXTT17=The Knockout
EXTT18=You Did Me Wrong
EXTT19=Let's Get Loose
EXTT20=Mama Didn't Raise No Fool
EXTT21=T-Bone Shuffle
EXTT22=Bluebird Boogie
PLAYORDER=
